<?xml version="1.0"?>
<svg width="500" height="500" xmlns="http://www.w3.org/2000/svg" xmlns:svg="http://www.w3.org/2000/svg">
 <defs>
  <clipPath id="freepik--clip-path--inject-37">
   <path d="m384.15,463.9c-5.2,-0.19 -13.36,-0.2 -16.67,-3.16a10.75,10.75 0 0 1 -3.05,-11.5c1.4,-3.94 5.19,-7.13 9.71,-8.41c1.63,-0.46 3.7,-1 3.94,-2.47c0.19,-1.18 -1,-2.14 -1.64,-3.18a5.69,5.69 0 0 1 0.05,-5.79a16.43,16.43 0 0 1 4.31,-4.67a131,131 0 0 1 13.21,-9c1.2,-0.75 2.8,-1.52 4.07,-0.85s1.23,2 1,3.09s-0.55,2.35 0.06,3.35s2.2,1.52 3.55,1.94c3.12,1 6.09,2.64 7.71,5.15a6.23,6.23 0 0 1 -0.79,8c8.53,1.1 15.6,7.95 15.93,15.44a10.09,10.09 0 0 1 -3.37,8.33c-2.64,2.19 -6.48,2.82 -10.11,3.22a149.11,149.11 0 0 1 -32.58,0" fill="none" id="svg_1"/>
  </clipPath>
 </defs>
 <g class="layer">
  <title>Layer 1</title>
  <g id="freepik--background-complete--inject-37" transform="matrix(1 0 0 1 0 0)">
   <path d="m272.25,120.88c0.62,-4.49 -5.72,-8.19 -10.49,-8.58c-2.28,-0.18 -4.64,0.17 -6.79,-0.58c-4.67,-1.63 -6.53,-7.66 -11.09,-9.58c-3.4,-1.44 -7.32,-0.16 -10.62,1.5s-6.57,3.76 -10.25,4c-3.21,0.21 -6.69,-1 -9.5,0.58c-2.09,1.17 -3.19,3.58 -5.11,5s-4.35,1.69 -6.69,1.82s-4.76,0.15 -6.89,1.12s-3.89,3.23 -3.45,5.53l80.88,-0.81z" fill="#f5f5f5" id="svg_2"/>
   <path d="m451.59,176.92c0.62,-4.5 -5.73,-8.19 -10.49,-8.58c-2.28,-0.18 -4.64,0.17 -6.79,-0.58c-4.67,-1.63 -6.53,-7.66 -11.09,-9.58c-3.4,-1.44 -7.32,-0.16 -10.62,1.5s-6.57,3.75 -10.25,4c-3.21,0.2 -6.69,-1 -9.5,0.58c-2.09,1.17 -3.19,3.58 -5.11,5s-4.35,1.69 -6.69,1.81s-4.76,0.15 -6.89,1.13s-3.89,3.23 -3.45,5.53l80.88,-0.81z" fill="#f5f5f5" id="svg_3"/>
   <path d="m287.18,55.29c0.62,-4.5 -5.72,-8.19 -10.49,-8.58c-2.28,-0.18 -4.64,0.17 -6.79,-0.59c-4.67,-1.62 -6.53,-7.65 -11.09,-9.57c-3.4,-1.44 -7.32,-0.16 -10.62,1.5s-6.56,3.75 -10.25,4c-3.21,0.2 -6.69,-1 -9.5,0.58c-2.09,1.17 -3.19,3.58 -5.11,5s-4.35,1.69 -6.69,1.81s-4.76,0.15 -6.89,1.13s-3.89,3.23 -3.45,5.53l80.88,-0.81z" fill="#f5f5f5" id="svg_4"/>
   <path d="m465.29,84.41c0.9,-6.58 -8.38,-12 -15.35,-12.55c-3.32,-0.27 -6.78,0.24 -9.93,-0.86c-6.82,-2.37 -9.55,-11.19 -16.21,-14c-5,-2.1 -10.71,-0.23 -15.54,2.2s-9.59,5.48 -15,5.83c-4.69,0.3 -9.78,-1.44 -13.88,0.85c-3.06,1.71 -4.66,5.23 -7.48,7.31s-6.36,2.47 -9.78,2.65s-7,0.22 -10.08,1.65s-5.69,4.72 -5,8.08l118.25,-1.16z" fill="#ebebeb" id="svg_5"/>
   <path d="m146.62,84.41c0.79,-6.58 -7.28,-12 -13.35,-12.55c-2.89,-0.27 -5.9,0.24 -8.64,-0.86c-5.93,-2.37 -8.31,-11.19 -14.1,-14c-4.33,-2.1 -9.32,-0.23 -13.51,2.2s-8.35,5.48 -13.02,5.8c-4.08,0.3 -8.52,-1.44 -12.09,0.85c-2.66,1.71 -4,5.23 -6.5,7.31s-5.53,2.47 -8.51,2.65s-6.05,0.22 -8.76,1.65s-5,4.72 -4.39,8.08l102.87,-1.13z" fill="#ebebeb" id="svg_6"/>
   <path d="m470.57,406.84a10.7,10.7 0 0 1 5.56,6.3a18.93,18.93 0 0 1 0.74,8.53c-0.63,5.54 -3.77,11.13 -7.16,15.56c-4.67,-4.07 -5.74,-11.17 -6.06,-14.81c-0.5,-5.75 2.08,-16.44 6.92,-15.58" fill="#f5f5f5" id="svg_7"/>
   <path d="m475.13,446.37a9.14,9.14 0 0 1 3,-8.71a12.18,12.18 0 0 1 9,-2.8a5.11,5.11 0 0 1 3.93,1.77a3.89,3.89 0 0 1 0.06,4a7.92,7.92 0 0 1 -2.94,2.89c-4,2.54 -8.41,4.25 -13,2.88" fill="#f5f5f5" id="svg_8"/>
   <path d="m469.15,463.35a5.85,5.85 0 0 1 0.16,-1.14l0.57,-3.07a31.88,31.88 0 0 1 3.17,-9.83a19.69,19.69 0 0 1 7.05,-7.49a13.07,13.07 0 0 1 2.88,-1.27a6.24,6.24 0 0 1 0.83,-0.21a1.28,1.28 0 0 1 0.29,0a21.13,21.13 0 0 0 -3.85,1.77a20.31,20.31 0 0 0 -6.85,7.45a34.67,34.67 0 0 0 -3.24,9.68c-0.29,1.29 -0.51,2.34 -0.69,3.05a7.52,7.52 0 0 1 -0.32,1.06z" fill="#e0e0e0" id="svg_9"/>
   <path d="m469.32,415.15a1.65,1.65 0 0 1 0.06,0.5c0,0.37 0.05,0.84 0.08,1.43c0.07,1.24 0.14,3 0.22,5.25c0.14,4.44 0.25,10.57 0.22,17.35s-0.19,12.91 -0.38,17.34c-0.09,2.22 -0.17,4 -0.25,5.26c0,0.58 -0.07,1.05 -0.1,1.42a3.3,3.3 0 0 1 -0.06,0.5a2.73,2.73 0 0 1 0,-0.5c0,-0.37 0,-0.84 0,-1.43c0,-1.29 0.08,-3.07 0.13,-5.25c0.11,-4.44 0.23,-10.57 0.26,-17.34s0,-12.9 -0.11,-17.34c0,-2.18 -0.06,-4 -0.08,-5.26c0,-0.58 0,-1.06 0,-1.43a2.83,2.83 0 0 1 0.01,-0.5z" fill="#e0e0e0" id="svg_10"/>
   <path d="m467.06,449.74a21.42,21.42 0 0 0 -11.7,-15.69c-1.56,-0.75 -3.59,-1.24 -4.87,-0.08s-1,3.25 -0.37,4.86a18.29,18.29 0 0 0 16.88,11.36" fill="#f5f5f5" id="svg_11"/>
   <path d="m456.12,439.3a6.41,6.41 0 0 1 1,0.43a11.87,11.87 0 0 1 1.12,0.6c0.42,0.26 0.92,0.52 1.42,0.89a17.43,17.43 0 0 1 1.63,1.23a20.31,20.31 0 0 1 1.71,1.55a24.22,24.22 0 0 1 3.3,4.23a24,24 0 0 1 2.17,4.91a20.13,20.13 0 0 1 0.54,2.28a16.24,16.24 0 0 1 0.28,2a14.65,14.65 0 0 1 0.08,1.68a9.61,9.61 0 0 1 0,1.26a5.28,5.28 0 0 1 -0.12,1.08c-0.09,0 0.07,-1.54 -0.2,-4c-0.08,-0.61 -0.16,-1.28 -0.32,-2a22.35,22.35 0 0 0 -0.58,-2.23a24.57,24.57 0 0 0 -2.16,-4.81a25.28,25.28 0 0 0 -3.21,-4.18c-0.58,-0.57 -1.12,-1.12 -1.69,-1.58s-1.08,-0.87 -1.57,-1.24c-2.04,-1.4 -3.44,-2.02 -3.4,-2.1z" fill="#e0e0e0" id="svg_12"/>
   <path d="m32.32,410.53a9.82,9.82 0 0 1 5.09,5.77a17.5,17.5 0 0 1 0.68,7.82c-0.58,5.07 -3.46,10.18 -6.56,14.24c-4.27,-3.73 -5.25,-10.23 -5.55,-13.56c-0.46,-5.26 1.91,-15.05 6.34,-14.27" fill="#f5f5f5" id="svg_13"/>
   <path d="m31.18,418.15a2.23,2.23 0 0 1 0.05,0.45c0,0.34 0,0.77 0.08,1.31c0.06,1.13 0.12,2.78 0.19,4.81c0.13,4.06 0.23,9.68 0.21,15.88s-0.18,11.82 -0.35,15.88c-0.08,2 -0.16,3.68 -0.23,4.81c0,0.54 -0.07,1 -0.09,1.31a2.87,2.87 0 0 1 -0.06,0.45a2.35,2.35 0 0 1 0,-0.46c0,-0.34 0,-0.77 0,-1.31c0,-1.18 0.07,-2.81 0.12,-4.81c0.1,-4.06 0.21,-9.67 0.24,-15.87s0,-11.81 -0.1,-15.87c0,-2 -0.06,-3.63 -0.08,-4.82c0,-0.53 0,-1 0,-1.31a1.79,1.79 0 0 1 0.02,-0.45z" fill="#e0e0e0" id="svg_14"/>
   <path d="m29.1,449.81a19.6,19.6 0 0 0 -10.7,-14.36c-1.43,-0.69 -3.29,-1.13 -4.47,-0.07s-0.91,3 -0.33,4.45a16.74,16.74 0 0 0 15.4,10.4" fill="#f5f5f5" id="svg_15"/>
   <path d="m19.09,440.26a4,4 0 0 1 0.9,0.39a11,11 0 0 1 1,0.55c0.38,0.24 0.84,0.47 1.3,0.81a15,15 0 0 1 1.49,1.13a18.65,18.65 0 0 1 1.59,1.44a20.17,20.17 0 0 1 5,8.36a18.48,18.48 0 0 1 0.5,2.09a15.18,15.18 0 0 1 0.26,1.85a14.38,14.38 0 0 1 0.07,1.54a8.2,8.2 0 0 1 0,1.16a5.67,5.67 0 0 1 -0.1,1c-0.09,0 0.06,-1.41 -0.19,-3.65a17.19,17.19 0 0 0 -0.3,-1.82a18.84,18.84 0 0 0 -0.53,-2a22.45,22.45 0 0 0 -2,-4.4a22.28,22.28 0 0 0 -3,-3.82a18.62,18.62 0 0 0 -1.54,-1.45a18.29,18.29 0 0 0 -1.44,-1.14c-1.76,-1.39 -3.05,-1.97 -3.01,-2.04z" fill="#e0e0e0" id="svg_16"/>
  </g>
  <g id="freepik--Floor--inject-37">
   <path d="m475.26,463.36c0,0.15 -102.32,0.26 -228.52,0.26s-228.55,-0.11 -228.55,-0.26s102.31,-0.26 228.55,-0.26s228.52,0.12 228.52,0.26z" fill="#263238" id="svg_17"/>
  </g>
  <g id="freepik--Plants--inject-37">
   <path d="m260.27,448.84a10.75,10.75 0 0 1 1.92,1.74a42.54,42.54 0 0 1 4,4.82a41.25,41.25 0 0 1 3.21,5.37a11.07,11.07 0 0 1 1,2.39a16.41,16.41 0 0 1 -1.32,-2.22c-0.78,-1.38 -1.92,-3.26 -3.31,-5.24s-2.78,-3.67 -3.82,-4.87a15.6,15.6 0 0 1 -1.68,-1.99z" fill="#263238" id="svg_18"/>
   <path d="m277.81,428.8a6.63,6.63 0 0 1 -0.28,1.34c-0.23,0.84 -0.53,2.08 -0.87,3.6a82.28,82.28 0 0 0 -1.79,24.3c0.11,1.56 0.23,2.83 0.32,3.7a5.8,5.8 0 0 1 0.09,1.36a8.13,8.13 0 0 1 -0.29,-1.33c-0.16,-0.87 -0.33,-2.13 -0.49,-3.7a71,71 0 0 1 -0.16,-12.28a71.93,71.93 0 0 1 2,-12.13c0.39,-1.52 0.75,-2.75 1,-3.58a7.9,7.9 0 0 1 0.47,-1.28z" fill="#263238" id="svg_19"/>
   <path d="m291.35,445.26a26.27,26.27 0 0 1 -1.67,2.35a38.6,38.6 0 0 0 -3.49,6a38.12,38.12 0 0 0 -2.32,6.51a26.82,26.82 0 0 1 -0.72,2.8a11.12,11.12 0 0 1 0.36,-2.88a30.76,30.76 0 0 1 5.87,-12.63a11.53,11.53 0 0 1 1.97,-2.15z" fill="#263238" id="svg_20"/>
   <path d="m173.05,399.39a12,12 0 0 1 6.19,7a21.14,21.14 0 0 1 0.82,9.49c-0.7,6.16 -4.2,12.38 -8,17.3c-5.18,-4.53 -6.38,-12.42 -6.73,-16.47c-0.56,-6.39 2.31,-18.28 7.69,-17.33" fill="#455a64" id="svg_21"/>
   <path d="m178.12,443.35a10.19,10.19 0 0 1 3.29,-9.68a13.54,13.54 0 0 1 10,-3.11c1.65,0.12 3.43,0.61 4.37,2a4.34,4.34 0 0 1 0.07,4.42a8.94,8.94 0 0 1 -3.27,3.22c-4.49,2.82 -9.36,4.72 -14.44,3.19" fill="#455a64" id="svg_22"/>
   <path d="m171.47,462.24a7,7 0 0 1 0.19,-1.26l0.62,-3.42a35.92,35.92 0 0 1 3.53,-10.93a21.77,21.77 0 0 1 7.84,-8.33a14.74,14.74 0 0 1 3.2,-1.42a8.63,8.63 0 0 1 0.92,-0.23a1,1 0 0 1 0.33,0a23,23 0 0 0 -4.28,2a22.55,22.55 0 0 0 -7.62,8.28a39,39 0 0 0 -3.61,10.77c-0.31,1.43 -0.57,2.59 -0.76,3.39a6.54,6.54 0 0 1 -0.36,1.15z" fill="#263238" id="svg_23"/>
   <path d="m171.67,408.64a4.06,4.06 0 0 1 0.06,0.55q0,0.62 0.09,1.59c0.08,1.38 0.16,3.38 0.24,5.84c0.16,4.94 0.28,11.76 0.25,19.3s-0.22,14.35 -0.42,19.29c-0.1,2.46 -0.2,4.46 -0.28,5.84c-0.05,0.65 -0.08,1.17 -0.11,1.58a3.1,3.1 0 0 1 -0.07,0.56a2.53,2.53 0 0 1 0,-0.56c0,-0.41 0,-0.94 0,-1.59c0,-1.44 0.08,-3.42 0.14,-5.84c0.12,-4.94 0.26,-11.75 0.29,-19.29s0,-14.34 -0.12,-19.28c0,-2.42 -0.07,-4.41 -0.09,-5.84c0,-0.66 0,-1.18 0,-1.59a2,2 0 0 1 0.02,-0.56z" fill="#263238" id="svg_24"/>
   <path d="m169.15,447.1a23.82,23.82 0 0 0 -13,-17.45c-1.73,-0.83 -4,-1.37 -5.42,-0.08s-1.11,3.61 -0.41,5.4a20.36,20.36 0 0 0 18.68,12.64" fill="#455a64" id="svg_25"/>
   <path d="m157,435.5a5.81,5.81 0 0 1 1.1,0.48a11.22,11.22 0 0 1 1.25,0.66c0.46,0.29 1,0.57 1.58,1a21.07,21.07 0 0 1 1.81,1.37a23.15,23.15 0 0 1 1.93,1.75a26.38,26.38 0 0 1 3.66,4.7a25.77,25.77 0 0 1 2.41,5.46a20.53,20.53 0 0 1 0.61,2.53a18.29,18.29 0 0 1 0.31,2.25a15.93,15.93 0 0 1 0.09,1.87a10.22,10.22 0 0 1 0,1.41a6.84,6.84 0 0 1 -0.13,1.19c-0.11,0 0.07,-1.71 -0.23,-4.44a20.61,20.61 0 0 0 -0.36,-2.21a25.27,25.27 0 0 0 -0.64,-2.48a27.37,27.37 0 0 0 -2.4,-5.35a27.71,27.71 0 0 0 -3.58,-4.64a25,25 0 0 0 -1.87,-1.76c-0.59,-0.54 -1.21,-1 -1.75,-1.39c-2.29,-1.61 -3.85,-2.32 -3.79,-2.4z" fill="#263238" id="svg_26"/>
  </g>
  <g id="freepik--Birds--inject-37">
   <path d="m329.9,72.13c0,0.05 -0.8,-0.27 -2.27,-0.6a18,18 0 0 0 -6.33,-0.24a17,17 0 0 0 -8.52,3.71a17.69,17.69 0 0 0 -6,9.56l0,0.1l-0.18,0.68l-0.26,-0.64a18.91,18.91 0 0 0 -7.21,-8.7a18.41,18.41 0 0 0 -8.83,-3a19.58,19.58 0 0 0 -6.29,0.58c-1.45,0.38 -2.22,0.72 -2.23,0.68a2.31,2.31 0 0 1 0.54,-0.27a14.19,14.19 0 0 1 1.64,-0.58a18.77,18.77 0 0 1 15.36,2.17a19.2,19.2 0 0 1 7.4,8.88l-0.43,0l0,-0.11a18,18 0 0 1 6.19,-9.78a17.28,17.28 0 0 1 8.78,-3.57a17.77,17.77 0 0 1 6.41,0.39a13.54,13.54 0 0 1 1.67,0.53a4.19,4.19 0 0 1 0.56,0.21z" fill="#263238" id="svg_27"/>
   <path d="m423.28,93.94s-0.45,-0.12 -1.26,-0.29a10.14,10.14 0 0 0 -3.46,-0.1a9.34,9.34 0 0 0 -4.63,2a9.65,9.65 0 0 0 -3.27,5.21l0,0l-0.17,0.69l-0.27,-0.65a10.34,10.34 0 0 0 -3.91,-4.74a10,10 0 0 0 -4.8,-1.62a10.56,10.56 0 0 0 -3.44,0.28c-0.8,0.2 -1.22,0.37 -1.24,0.33a1.28,1.28 0 0 1 0.3,-0.16a5.43,5.43 0 0 1 0.9,-0.34a9.88,9.88 0 0 1 3.51,-0.44a10.19,10.19 0 0 1 5,1.59a10.64,10.64 0 0 1 4.11,4.93l-0.44,0l0,-0.06a9.94,9.94 0 0 1 3.45,-5.43a9.63,9.63 0 0 1 8.41,-1.76a5.48,5.48 0 0 1 0.91,0.31a0.92,0.92 0 0 1 0.3,0.25z" fill="#263238" id="svg_28"/>
   <path d="m366.66,111.12s-0.5,0.57 -1.4,1.58a34.06,34.06 0 0 0 -8.48,22.53l0,0.23l-0.52,0a29.74,29.74 0 0 0 -3.28,-9.71a30.4,30.4 0 0 0 -5,-6.74a30.86,30.86 0 0 0 -4.33,-3.67c-1.1,-0.76 -1.74,-1.14 -1.72,-1.19a2.58,2.58 0 0 1 0.49,0.24c0.31,0.18 0.79,0.4 1.35,0.78a27.68,27.68 0 0 1 4.47,3.58a29.69,29.69 0 0 1 8.53,16.64l-0.53,0c0,-0.07 0,-0.15 0,-0.23a33,33 0 0 1 5.27,-18.13a30.91,30.91 0 0 1 3.58,-4.55c0.46,-0.5 0.87,-0.84 1.13,-1.09s0.43,-0.29 0.44,-0.27z" fill="#263238" id="svg_29"/>
  </g>
  <g id="freepik--Dog--inject-37">
   <path d="m267.6,317.88l-71.5,19.43c-1,17.24 5.58,34.41 16.17,48c3.28,4.22 7,8.2 9.29,13c3.82,7.85 3.59,17.18 1.17,25.56s-6.87,16 -11.33,23.52c-4.12,-4.08 -11,-4.52 -16.15,-1.78s-7.95,11.84 -9.15,17.51l28.39,0a8.9,8.9 0 0 0 6.4,-4c4.3,-6 5.58,-7.54 7.7,-10.66l28.93,-42.63a49.15,49.15 0 0 1 -11.35,-29.67c-0.36,-10.78 15.07,-49.57 21.43,-58.28z" fill="#CFD8DC" id="svg_33"/>
   <g id="svg_34" opacity="0.3">
    <path d="m250,358.57c4.92,-15.4 13.3,-34.84 17.57,-40.69l-71.5,19.43a64.36,64.36 0 0 0 3,23.34s18.69,-7 28.09,-5.88s22.84,3.8 22.84,3.8z" id="svg_35"/>
   </g>
   <path d="m47.21,156.91c-2.21,2.09 -21.95,24.2 -24.21,64.74c0,0 -2.57,13.4 -1,15s3.93,-4.47 3.93,-4.47s-4.36,7.91 -2.11,22s2.59,21 18.92,57.55s61.35,47.58 61.35,47.58s48.43,-9.86 50.12,-10.42s33.21,-4.51 54,-13.52s32.09,-0.56 40,7.32s39.39,38.84 42.79,46.72s8.44,18.58 12.38,24.21s10.7,18.57 10.13,25.33s-11.26,17.45 -2.25,24.21l25.34,0s-1.69,-20.27 -9,-37.72s-20.27,-38.85 -19.71,-56.86s-0.56,-41.1 -1.68,-49.54s-2.82,-17.15 -2.82,-17.15l-2.81,4.2s0.56,-25.33 -18.58,-42.78s-39.41,-36 -77.69,-32.09s-51.23,8.44 -62.49,5.06s-19.7,-4.5 -22,-12.94l7.32,-34.91s1.13,-16.89 -3.37,-25.89s-21.7,-17.54 -31.52,-19.67c-4.92,-1.04 -29.25,-1.16 -45.04,14.04z" fill="#CFD8DC" id="svg_36"/>
   <path d="m91.42,190.32c-0.06,0.08 -0.74,-0.52 -2,-1.09a9.61,9.61 0 0 0 -5.42,-0.73a9.71,9.71 0 0 0 -4.87,2.36c-1.05,0.95 -1.52,1.73 -1.59,1.68a4.84,4.84 0 0 1 1.33,-1.94a9,9 0 0 1 10.65,-1.7a5,5 0 0 1 1.9,1.42z" fill="#263238" id="svg_37"/>
   <path d="m159.54,345.71a30.44,30.44 0 0 1 -11,-27.83l-63.64,20.68c16.48,12.78 27.4,31.63 34,51.4s9.35,40.59 12,61.27c-10.79,4.67 -8.75,16.51 -8.75,16.51l29.85,0c3.56,-4.1 6.25,-11.94 6.2,-17.38c0,-1.66 -2.08,-5.07 -3,-8.36c-8.72,-31.45 -6.2,-65.4 4.34,-96.29z" fill="#CFD8DC" id="svg_38"/>
   <path d="m81.68,335.68c-0.22,0.24 -2.38,-1.19 -5.29,-4.18a49.26,49.26 0 0 1 -4.68,-5.64a59.38,59.38 0 0 1 -4.58,-7.72a58.13,58.13 0 0 1 -3.25,-8.38a50.35,50.35 0 0 1 -1.55,-7.16c-0.55,-4.14 -0.34,-6.72 0,-6.74s0.83,2.47 1.82,6.39c0.49,2 1.17,4.26 2,6.77a82.5,82.5 0 0 0 3.31,8a81,81 0 0 0 4.23,7.52c1.45,2.23 2.84,4.18 4.08,5.78c2.48,3.17 4.23,5.07 3.91,5.36z" fill="#CFD8DC" id="svg_39"/>
   <path d="m348,177.14c-1.79,-9.6 -5.62,-19.07 -12.48,-26s-17.09,-11 -26.62,-8.89c-13.88,3.06 -17.5,13.84 -19.85,27.85s5.35,29 3.42,43.12s-19.83,32.23 -33.37,36.52l14.9,16.43a75.26,75.26 0 0 0 74,-89l0,-0.03z" fill="#CFD8DC" id="svg_40"/>
   <path d="m43.57,245.3a40.94,40.94 0 0 0 -1.36,15.7l5.26,-8.67a20.74,20.74 0 0 0 3,14.08l3.3,-8.94a50.46,50.46 0 0 0 11,18.93" fill="#CFD8DC" id="svg_41"/>
   <path d="m64.76,276.35s-0.12,-0.08 -0.31,-0.28s-0.48,-0.48 -0.83,-0.87c-0.71,-0.79 -1.71,-2 -2.87,-3.53a49.79,49.79 0 0 1 -7.25,-14.18l0.5,0c-1,2.77 -2.12,5.79 -3.28,8.95l-0.18,0.49l-0.28,-0.44a21.53,21.53 0 0 1 -2,-4.09a21,21 0 0 1 -1,-10.16l0.46,0.16l-5.28,8.65l-0.34,0.54l-0.1,-0.59a40,40 0 0 1 0.48,-11.48c0.26,-1.36 0.53,-2.41 0.73,-3.12c0.1,-0.36 0.19,-0.62 0.25,-0.8s0.1,-0.28 0.11,-0.27a7.88,7.88 0 0 1 -0.23,1.1c-0.16,0.72 -0.4,1.77 -0.62,3.13a41.86,41.86 0 0 0 -0.29,11.39l-0.4,-0.09l5.22,-8.67l0.65,-1.07l-0.19,1.23a20.6,20.6 0 0 0 2.94,13.9l-0.46,0l3.31,-8.93l0.24,-0.66l0.21,0.67a52.14,52.14 0 0 0 7,14.15c1.12,1.59 2.09,2.78 2.76,3.59l0.77,0.93a1.93,1.93 0 0 1 0.28,0.35z" fill="#263238" id="svg_42"/>
   <path d="m112.94,354.37l-71.15,-46c2.14,11.31 16.22,33.15 23,43.93l0.3,98.12c-9,-0.5 -17,3.69 -17.55,12.71l33.51,0s3.75,-12.27 6.26,-16.82s-0.69,-12.54 -0.69,-12.54c0,-28.22 9.38,-57.05 26.32,-79.4z" fill="#CFD8DC" id="svg_43"/>
   <path d="m66.76,305.81a4.39,4.39 0 0 1 0.07,0.78c0.06,0.51 0,1.26 0.16,2.21a38.66,38.66 0 0 0 1.71,8a61.18,61.18 0 0 0 4.87,11.06a116.17,116.17 0 0 0 8.06,12.45a58.8,58.8 0 0 0 10.37,10.48c3.52,2.9 6.78,5.42 9.39,7.7a57.64,57.64 0 0 1 5.88,5.72c0.66,0.71 1.09,1.34 1.41,1.73a3.63,3.63 0 0 1 0.45,0.63a4.24,4.24 0 0 1 -0.53,-0.56c-0.35,-0.37 -0.8,-1 -1.48,-1.66a65.64,65.64 0 0 0 -6,-5.58c-2.64,-2.24 -5.92,-4.72 -9.47,-7.61a58.12,58.12 0 0 1 -10.49,-10.58a111,111 0 0 1 -8.06,-12.52a59.67,59.67 0 0 1 -4.81,-11.18a36.12,36.12 0 0 1 -1.55,-8.06a20.83,20.83 0 0 1 -0.06,-2.23a3.92,3.92 0 0 1 0.08,-0.78z" fill="#263238" id="svg_44"/>
   <path d="m157.1,350.09a84.74,84.74 0 0 1 15.47,-24.18a49.22,49.22 0 0 0 -12.32,8.18a147.75,147.75 0 0 1 8.84,-18.43" fill="#CFD8DC" id="svg_45"/>
   <path d="m169.09,315.66a1.5,1.5 0 0 1 -0.15,0.36l-0.52,1l-1.93,3.75c-1.63,3.22 -3.82,7.84 -6,13.41l-0.39,-0.27a48.46,48.46 0 0 1 9.48,-6.77c1,-0.54 2,-1 2.89,-1.47l1.18,-0.55l-0.87,1a87.41,87.41 0 0 0 -11.9,16.58c-1.25,2.27 -2.17,4.14 -2.79,5.43l-0.7,1.49a2.34,2.34 0 0 1 -0.28,0.51a2.92,2.92 0 0 1 0.19,-0.54c0.14,-0.36 0.33,-0.88 0.62,-1.54c0.56,-1.32 1.44,-3.22 2.65,-5.51a82.61,82.61 0 0 1 11.82,-16.77l0.3,0.41c-0.92,0.44 -1.89,0.92 -2.86,1.45a50.18,50.18 0 0 0 -9.41,6.68l-0.77,0.7l0.39,-1a134.83,134.83 0 0 1 6.2,-13.37c0.85,-1.6 1.56,-2.84 2.05,-3.69l0.59,-1a1.21,1.21 0 0 1 0.21,-0.29z" fill="#263238" id="svg_46"/>
   <path d="m266.05,360.65l-0.18,-0.16l-0.48,-0.47l-1.83,-1.88c-1.58,-1.64 -3.83,-4 -6.6,-7a119.44,119.44 0 0 0 -10.14,-10a41.1,41.1 0 0 0 -6.9,-4.73a34.83,34.83 0 0 0 -8.39,-3.17a32,32 0 0 0 -8.92,-0.76a46.07,46.07 0 0 0 -8.28,1.28a114.59,114.59 0 0 0 -13.55,4.41c-3.8,1.45 -6.86,2.65 -9,3.39c-1.06,0.39 -1.91,0.65 -2.48,0.83l-0.65,0.2c-0.15,0.05 -0.23,0.06 -0.23,0.05l0.21,-0.1l0.63,-0.25c0.56,-0.21 1.4,-0.5 2.45,-0.92c2.13,-0.8 5.17,-2 9,-3.54a109.45,109.45 0 0 1 13.57,-4.54a46.49,46.49 0 0 1 8.37,-1.32a32,32 0 0 1 9.06,0.77a35,35 0 0 1 8.51,3.22a40.29,40.29 0 0 1 7,4.81a115.37,115.37 0 0 1 10.1,10.13l6.48,7.13l1.75,1.94l0.45,0.52c0,0.09 0.06,0.15 0.05,0.16z" fill="#263238" id="svg_47"/>
   <g id="svg_48" opacity="0.3">
    <path d="m117.81,223.66c-7.21,2.62 -13,7.79 -15.63,13.93l4.57,-1.83a34.39,34.39 0 0 0 -7.9,21.87c-5.19,-8.62 -4.57,-21.86 -0.24,-26a16.12,16.12 0 0 1 10.87,-7.21c7.35,-1.16 8.33,-0.76 8.33,-0.76z" id="svg_49"/>
   </g>
   <path d="m292.38,275.87a11.32,11.32 0 0 1 -1,-1.44c-0.59,-1 -1.49,-2.31 -2.65,-3.95s-2.6,-3.53 -4.31,-5.56s-3.7,-4.14 -5.91,-6.25s-4.47,-4 -6.57,-5.57s-4.08,-2.94 -5.78,-4s-3.1,-1.89 -4.08,-2.42a11.43,11.43 0 0 1 -1.5,-0.9a10.5,10.5 0 0 1 1.59,0.72c1,0.48 2.45,1.26 4.18,2.29a68.25,68.25 0 0 1 5.88,3.93a71.75,71.75 0 0 1 12.56,11.9c1.69,2.05 3.13,4 4.25,5.65s2,3.06 2.51,4.05a12.07,12.07 0 0 1 0.83,1.55z" fill="#263238" id="svg_50"/>
   <path d="m328,178a2.5,2.5 0 0 1 -0.15,-0.58c-0.09,-0.38 -0.16,-0.94 -0.34,-1.66a36.33,36.33 0 0 0 -1.94,-6a35.7,35.7 0 0 0 -4.82,-8.18a34.74,34.74 0 0 0 -8.78,-8l0.38,-0.27c0.54,2.42 1,5 1.44,7.55a123.51,123.51 0 0 1 1.45,14.72l0,0.91l-0.48,-0.78a26.88,26.88 0 0 0 -5.95,-6.79l0.33,-0.19c0.69,4.19 1.25,7.62 1.66,10.06c0.17,1.16 0.31,2.08 0.42,2.77a6.19,6.19 0 0 1 0.11,1a6.28,6.28 0 0 1 -0.23,-0.95l-0.53,-2.75c-0.44,-2.43 -1.07,-5.86 -1.83,-10l-0.09,-0.52l0.42,0.33a27.11,27.11 0 0 1 6.09,6.86l-0.44,0.14a131.84,131.84 0 0 0 -1.48,-14.66c-0.41,-2.59 -0.9,-5.1 -1.42,-7.52l-0.14,-0.6l0.52,0.33a34.76,34.76 0 0 1 8.86,8.12a34.26,34.26 0 0 1 4.77,8.33a32.2,32.2 0 0 1 1.81,6.09c0.16,0.73 0.2,1.3 0.26,1.69a4.22,4.22 0 0 1 0.1,0.55z" fill="#263238" id="svg_51"/>
   <path d="m99.24,364.53a6.1,6.1 0 0 1 -1.16,-0.31l-3.24,-1l-11.4,-3.7l0.26,-0.36a19.08,19.08 0 0 0 5.3,4.69l-0.23,0.45a60.75,60.75 0 0 1 -22.91,-15.52a59.16,59.16 0 0 1 -4.12,-5l-1,-1.46a2.09,2.09 0 0 1 -0.32,-0.52a3.27,3.27 0 0 1 0.4,0.46l1.07,1.4c1,1.18 2.34,2.92 4.23,4.88a62.77,62.77 0 0 0 17,12.69c2,1 3.94,1.86 5.85,2.62l-0.22,0.45a19.27,19.27 0 0 1 -5.43,-4.84l-0.46,-0.6l0.72,0.24l11.35,3.9l3.19,1.13a7.76,7.76 0 0 1 1.12,0.4z" fill="#263238" id="svg_52"/>
   <path d="m30.72,282.75s23.14,18.74 30,14.9s71.87,-64 71.87,-64l14.41,4.11s-64.21,64.72 -65.59,69.95c0,0 -9.29,12.86 -4.51,23s26.67,30 26.67,30s-33.14,-9.38 -41.25,-21.39s-16.15,-26.32 -16.15,-26.32l-5.41,-5.62c-4.06,-6.67 -7.3,-15.11 -10.04,-24.63z" fill="#263238" id="svg_53"/>
   <path d="m157.94,348.2s24,-14 27.67,-26.53s5.35,-89 5.35,-89l-21.57,2.88s6.4,70.11 3.18,82.28s-14.63,30.37 -14.63,30.37z" fill="#263238" id="svg_54"/>
   <path d="m140.55,242.11a119.61,119.61 0 0 0 36.22,-1.38l-0.9,-6.29a205.35,205.35 0 0 1 -37.57,2.17" fill="#263238" id="svg_55"/>
   <path d="m99.31,146.33s16.63,-17.23 20.54,-18.88s6.36,0 7.39,3.91s-0.86,18.72 -5.16,28.35" fill="#CFD8DC" id="svg_56"/>
   <path d="m48.53,155.69s3.72,-14.08 6.84,-21.25s14.71,-23.89 17.63,-22.79s5.7,4.78 9.56,14.15s6.79,16.74 6.79,16.74" fill="#CFD8DC" id="svg_57"/>
   <path d="m121.62,177.74a3.65,3.65 0 0 0 -5.22,4.12a5.43,5.43 0 0 0 1.72,2.71a5.11,5.11 0 0 0 2.3,0.56a3.12,3.12 0 0 0 1.89,-0.82a3.34,3.34 0 0 0 1,-1.15a4.83,4.83 0 0 0 0.1,-3.49a3.18,3.18 0 0 0 -2.85,-2.16" fill="#263238" id="svg_58"/>
   <path d="m115.64,177.86a54.83,54.83 0 0 0 19.36,12.52c8.4,3.11 14.56,6.62 11.91,13.5s-12.1,16 -18.72,18.12s-13,-0.12 -19.93,3.06s-12.26,12.7 -12.26,12.7" fill="#CFD8DC" id="svg_59"/>
   <path d="m96,237.76a1,1 0 0 1 0.11,-0.25c0.09,-0.17 0.22,-0.41 0.4,-0.72c0.37,-0.63 0.93,-1.53 1.72,-2.66a39.73,39.73 0 0 1 3.12,-3.92a24.74,24.74 0 0 1 5,-4.36a16.56,16.56 0 0 1 1.66,-0.93a18.59,18.59 0 0 1 1.84,-0.74a20.46,20.46 0 0 1 4.1,-1c2.88,-0.41 6,-0.28 9.2,-0.54a22.21,22.21 0 0 0 4.83,-0.91a20.35,20.35 0 0 0 4.58,-2.27a35.82,35.82 0 0 0 4.27,-3.21a43.17,43.17 0 0 0 3.94,-3.84a28.91,28.91 0 0 0 5.9,-9a6.85,6.85 0 0 0 0.06,-4.9a8.92,8.92 0 0 0 -3.09,-3.65a35.78,35.78 0 0 0 -8.16,-4.08a53.63,53.63 0 0 1 -7.31,-3.34a55.45,55.45 0 0 1 -9.53,-6.65c-1,-0.91 -1.8,-1.65 -2.31,-2.16l-0.57,-0.6a1.1,1.1 0 0 1 -0.17,-0.22s0.08,0 0.21,0.18l0.6,0.56c0.53,0.49 1.32,1.2 2.37,2.08a58.85,58.85 0 0 0 9.58,6.49a55.36,55.36 0 0 0 7.29,3.26a35.4,35.4 0 0 1 8.28,4.1a9.31,9.31 0 0 1 3.27,3.84a7.39,7.39 0 0 1 0,5.26a29.2,29.2 0 0 1 -6,9.17a42.85,42.85 0 0 1 -4,3.88a36.07,36.07 0 0 1 -4.34,3.25a21.18,21.18 0 0 1 -4.7,2.32a22.2,22.2 0 0 1 -4.94,0.91c-3.26,0.25 -6.34,0.11 -9.18,0.49a19.6,19.6 0 0 0 -4,0.91a17.9,17.9 0 0 0 -1.81,0.71a16.78,16.78 0 0 0 -1.62,0.89a25.49,25.49 0 0 0 -5,4.24a44.43,44.43 0 0 0 -3.16,3.85c-0.81,1.1 -1.4,2 -1.8,2.59l-0.44,0.69a1.27,1.27 0 0 1 -0.2,0.28z" fill="#263238" id="svg_60"/>
   <path d="m88.26,176.17a4.46,4.46 0 0 0 -6.37,5a6.75,6.75 0 0 0 2.1,3.31a6.48,6.48 0 0 0 2.82,0.68a3.72,3.72 0 0 0 2.3,-1a4.09,4.09 0 0 0 1.24,-1.39a6,6 0 0 0 0.12,-4.27a3.89,3.89 0 0 0 -3.47,-2.61" fill="#263238" id="svg_61"/>
   <path d="m146.92,198.34a6.28,6.28 0 0 0 -3.22,-3.78a13,13 0 0 0 -4.56,-1.17q-3.09,-0.37 -6.2,-0.49c-1.17,0 -2.61,0.13 -3.1,1.38s0.3,2.56 1,3.57a23.26,23.26 0 0 0 5.39,5.73a7.49,7.49 0 0 0 7,1.09a6.47,6.47 0 0 0 3.65,-6.64" fill="#263238" id="svg_62"/>
   <path d="m96.44,207.81a3.7,3.7 0 0 0 0.4,2.21a15,15 0 0 0 4.25,4.55a39.32,39.32 0 0 0 8.06,4.66a30.22,30.22 0 0 0 5.2,1.74a43.37,43.37 0 0 0 5.85,0.83a17.76,17.76 0 0 0 5.82,-0.48a14.67,14.67 0 0 0 4.87,-2.39a23.4,23.4 0 0 0 6.08,-7a61.48,61.48 0 0 0 2.9,-5.6l0.74,-1.56a4.19,4.19 0 0 1 0.28,-0.53a2.4,2.4 0 0 1 -0.19,0.58c-0.16,0.41 -0.38,0.94 -0.64,1.59a52.47,52.47 0 0 1 -2.77,5.71a23.31,23.31 0 0 1 -6.12,7.16a15.3,15.3 0 0 1 -5,2.5a18.34,18.34 0 0 1 -6,0.5a42.75,42.75 0 0 1 -5.93,-0.85a30.32,30.32 0 0 1 -5.28,-1.8a38.07,38.07 0 0 1 -8.1,-4.81a14.42,14.42 0 0 1 -4.2,-4.76a3.39,3.39 0 0 1 -0.35,-1.7a1.64,1.64 0 0 1 0.13,-0.55z" fill="#263238" id="svg_63"/>
   <g id="svg_64" opacity="0.3">
    <path d="m61.49,148.54a60.16,60.16 0 0 1 7.79,-22.94c0.75,-1.29 2.07,-2.73 3.45,-2.16a3.16,3.16 0 0 1 1.43,1.69a115.25,115.25 0 0 1 7.25,18.29a35.23,35.23 0 0 0 -19.72,6.81" id="svg_65"/>
   </g>
   <g id="svg_66" opacity="0.3">
    <path d="m107.87,147.7c4.47,2.05 6.69,5 10.28,8.31a49.77,49.77 0 0 0 5.28,-17.32c0.13,-1.12 0.12,-2.45 -0.79,-3.11c-1.12,-0.81 -2.66,0 -3.74,0.89a63.72,63.72 0 0 0 -11,11.23" id="svg_67"/>
   </g>
   <path d="m140.66,196.52c-0.06,0.14 -2,-0.62 -4.56,-0.83s-4.61,0.18 -4.64,0a9.3,9.3 0 0 1 4.68,-0.55a9.14,9.14 0 0 1 4.52,1.38z" fill="#fff" id="svg_68"/>
   <path d="m38.1,302.51a2.55,2.55 0 0 1 0.61,0.05c0.4,0.05 1,0.16 1.74,0.33a14.77,14.77 0 0 1 5.82,2.85a33.09,33.09 0 0 1 6.16,7.41a75.86,75.86 0 0 1 5.57,10.39c1.73,3.8 3.29,7.45 5,10.64a49.33,49.33 0 0 0 5.13,8.05a30.6,30.6 0 0 0 4.48,4.61c1.17,1 1.89,1.43 1.86,1.48a2.83,2.83 0 0 1 -0.54,-0.31a15.23,15.23 0 0 1 -1.44,-1a28.64,28.64 0 0 1 -4.65,-4.53a48.11,48.11 0 0 1 -5.26,-8.06c-1.72,-3.2 -3.3,-6.86 -5,-10.65a76.87,76.87 0 0 0 -5.58,-10.36a33.76,33.76 0 0 0 -6,-7.41a15.39,15.39 0 0 0 -5.64,-2.93c-1.43,-0.4 -2.27,-0.51 -2.26,-0.56z" fill="#455a64" id="svg_69"/>
   <path d="m133.93,235.05a2.31,2.31 0 0 1 -0.22,0.26c-0.17,0.19 -0.4,0.43 -0.69,0.73l-2.69,2.79c-2.35,2.4 -5.77,5.86 -10,10.08c-8.53,8.46 -20.49,20 -34,32.33c-6.78,6.18 -13.28,12 -19.3,17.21a23.19,23.19 0 0 1 -4.87,3.24a10.4,10.4 0 0 1 -5.44,1a14,14 0 0 1 -4.9,-1.59a39.72,39.72 0 0 1 -4,-2.47c-5,-3.34 -9,-6.18 -11.61,-8.24c-1.33,-1 -2.35,-1.84 -3,-2.4l-0.78,-0.64c-0.17,-0.15 -0.26,-0.23 -0.25,-0.24l0.28,0.19l0.81,0.61l3.09,2.32c2.69,2 6.67,4.8 11.69,8.09a40.73,40.73 0 0 0 4,2.42a13.55,13.55 0 0 0 4.77,1.52a9.77,9.77 0 0 0 5.2,-1a22.21,22.21 0 0 0 4.75,-3.19c6,-5.21 12.49,-11.05 19.26,-17.22c13.41,-12.34 25.41,-23.85 33.97,-32.2l10.16,-10l2.84,-2.65l0.72,-0.7a2.31,2.31 0 0 1 0.21,-0.25z" fill="#455a64" id="svg_70"/>
   <path d="m99.73,359.54l-0.64,-0.43l-1.87,-1.3c-1.64,-1.15 -4,-2.85 -7,-5.21a64.76,64.76 0 0 1 -10,-9.58a39.66,39.66 0 0 1 -4.74,-7.25a32.26,32.26 0 0 1 -3.08,-9.2a24.29,24.29 0 0 1 0.47,-10.65a31.51,31.51 0 0 1 5.29,-10.29a104,104 0 0 1 8.13,-9.36c2.92,-3.09 6,-6.25 9.12,-9.44c12.6,-12.82 27.1,-26.24 41.53,-41.12c1.83,-1.88 3.62,-3.78 5.4,-5.65l0.08,-0.08l0.1,0l31.95,-0.79l0.24,0l0,0.24c1.1,15.9 1.93,30.76 2.06,44.11c0.08,6.67 0,13 -0.16,18.8a101.27,101.27 0 0 1 -1.48,16.1a45.73,45.73 0 0 1 -4.13,12.5a33.58,33.58 0 0 1 -5.64,8.05a25.27,25.27 0 0 1 -4.73,3.93a17.91,17.91 0 0 1 -1.84,1.07l0.45,-0.29c0.3,-0.2 0.77,-0.44 1.34,-0.85a25.75,25.75 0 0 0 4.65,-4a33.86,33.86 0 0 0 5.55,-8a46.21,46.21 0 0 0 4,-12.45a102.09,102.09 0 0 0 1.41,-16.05c0.14,-5.84 0.2,-12.12 0.11,-18.79c-0.16,-13.33 -1,-28.17 -2.13,-44.07l0.25,0.23l-31.94,0.81l0.18,-0.09c-1.78,1.88 -3.57,3.78 -5.41,5.66c-14.44,14.89 -28.95,28.31 -41.56,41.09q-4.74,4.79 -9.13,9.43a104.37,104.37 0 0 0 -8.12,9.29a31.31,31.31 0 0 0 -5.21,10.09a24.13,24.13 0 0 0 -0.5,10.48a32.12,32.12 0 0 0 3,9.11a38.1,38.1 0 0 0 4.67,7.21a65.49,65.49 0 0 0 9.89,9.61c3,2.38 5.36,4.1 7,5.29l1.84,1.34c0.4,0.33 0.6,0.5 0.6,0.5z" fill="#455a64" id="svg_71"/>
   <path d="m186.08,233.37a1.5,1.5 0 0 1 0,0.31c0,0.24 0,0.54 0,0.92c0,0.84 -0.09,2 -0.15,3.53c-0.14,3.06 -0.34,7.5 -0.53,13c-0.39,11 -0.59,26.11 -0.18,42.84c0.17,8.34 -0.09,16.47 -2.33,23.45a42.37,42.37 0 0 1 -10,16.39a58.81,58.81 0 0 1 -10,8.25c-1.29,0.82 -2.31,1.44 -3,1.83l-0.81,0.44a1.37,1.37 0 0 1 -0.28,0.14s0.08,-0.07 0.26,-0.18l0.77,-0.49c0.7,-0.41 1.69,-1.06 3,-1.91a60.88,60.88 0 0 0 9.89,-8.33a42.34,42.34 0 0 0 9.8,-16.28c2.19,-6.91 2.44,-15 2.27,-23.31c-0.41,-16.73 -0.15,-31.9 0.33,-42.86c0.24,-5.48 0.49,-9.91 0.69,-13c0.11,-1.5 0.2,-2.68 0.26,-3.53c0,-0.37 0.06,-0.68 0.08,-0.91a1.44,1.44 0 0 1 -0.07,-0.3z" fill="#455a64" id="svg_72"/>
  </g>
  <g id="freepik--Sign--inject-37" transform="matrix(1 0 0 1 0 0)">
   <rect fill="#455a64" height="196.54" id="svg_73" width="20.2" x="377.78" y="259.35"/>
   <rect fill="#fff" height="111.8" id="svg_75" transform="matrix(0.99796 -0.0638356 0.0638356 0.99796 0 0)" width="164.93" x="288.94" y="215.21"/>
   <path d="m473.83,299.34s-0.06,-0.69 -0.15,-2s-0.23,-3.31 -0.4,-5.89c-0.34,-5.16 -0.85,-12.74 -1.49,-22.44c-1.27,-19.39 -3.09,-47.26 -5.31,-81.21l0.22,0.2l-164.58,10.57l0,0l0.24,-0.28c2.54,39.79 5,77.61 7.12,111.57l-0.25,-0.22l118.62,-7.47l33.87,-2.11l9,-0.55l2.32,-0.13l0.8,0l-0.77,0.07l-2.29,0.16l-8.95,0.6l-33.83,2.19l-118.76,7.72l-0.24,0l0,-0.24c-2.18,-34 -4.61,-71.78 -7.17,-111.57l0,-0.26l0.27,0l164.59,-10.49l0.2,0l0,0.21c2.13,34 3.88,61.92 5.1,81.34c0.59,9.69 1.06,17.25 1.38,22.41c0.15,2.56 0.27,4.52 0.35,5.85s0.11,1.97 0.11,1.97z" fill="#263238" id="svg_76" transform="rotate(1.26301 387.835 248.84)"/>
  </g>
  <g id="freepik--Poop--inject-37">
   <path d="m403.58,339.44a3.19,3.19 0 0 0 -2.65,-2.07a4.93,4.93 0 0 0 -3.35,0.95c0.87,-1.35 1.78,-2.95 1.26,-4.47s-2.45,-2.3 -4.08,-2.05a10.83,10.83 0 0 0 -4.4,2.18a5,5 0 1 0 -9.56,-2.91a2.37,2.37 0 0 0 -1.88,-2.44a3.56,3.56 0 0 0 -3.1,1a7.21,7.21 0 0 0 -1.75,2.86a17.14,17.14 0 0 0 0,11.69a21.26,21.26 0 0 0 7,9.47l12.23,-1.15a6.84,6.84 0 0 1 2.84,-6.3c1.5,-1 3.36,-1.42 4.95,-2.31s3.03,-2.71 2.49,-4.45z" fill="#e0e0e0" id="svg_103"/>
   <path d="m403.58,339.44a1.59,1.59 0 0 1 0.1,0.31a2.59,2.59 0 0 1 0,1a4.71,4.71 0 0 1 -2.06,3c-1.31,1 -3.28,1.35 -5.14,2.49a6.67,6.67 0 0 0 -3,6.29l0,0.2l-0.21,0l-12.23,1.19l-0.09,0l-0.08,-0.06a22.09,22.09 0 0 1 -6.29,-7.67a18.07,18.07 0 0 1 -1.58,-10.6a16.43,16.43 0 0 1 0.89,-3.39a7.14,7.14 0 0 1 1.91,-2.91a3.69,3.69 0 0 1 3.32,-0.87a2.62,2.62 0 0 1 1.94,2.68l-0.49,-0.09a5.23,5.23 0 1 1 10,3l-0.33,-0.24a12.38,12.38 0 0 1 3.86,-2.07a4.51,4.51 0 0 1 3.89,0.67a2.87,2.87 0 0 1 1.01,1.63a3.38,3.38 0 0 1 0,1.73a9.21,9.21 0 0 1 -1.34,2.7l-0.18,-0.17a5.25,5.25 0 0 1 2.9,-1a3.51,3.51 0 0 1 2.13,0.7a2.78,2.78 0 0 1 0.89,1.05a1.79,1.79 0 0 1 0.15,0.45a3.2,3.2 0 0 0 -1.12,-1.39a3.46,3.46 0 0 0 -2,-0.61a5.06,5.06 0 0 0 -2.76,1l-0.53,0.38l0.34,-0.56a9.3,9.3 0 0 0 1.26,-2.63a2.72,2.72 0 0 0 -1,-2.93a4.15,4.15 0 0 0 -3.58,-0.57a12.07,12.07 0 0 0 -3.71,2l-0.54,0.38l0.21,-0.62a5,5 0 0 0 -2.79,-5.95a4.94,4.94 0 0 0 -6.32,3.17l-0.5,-0.1a2.13,2.13 0 0 0 -1.58,-2.13a3.23,3.23 0 0 0 -2.85,0.77a6.59,6.59 0 0 0 -1.75,2.71a15.23,15.23 0 0 0 -0.86,3.28a17.58,17.58 0 0 0 1.63,10.25a21.56,21.56 0 0 0 6.12,7.51l-0.16,-0.05l12.24,-1.1l-0.18,0.22a7,7 0 0 1 3.18,-6.61a16.76,16.76 0 0 1 2.85,-1.29a12,12 0 0 0 2.33,-1.11a4.66,4.66 0 0 0 2.08,-2.8a3.9,3.9 0 0 0 0.02,-1.24z" fill="#263238" id="svg_104"/>
   <path d="m442.47,461.42c2.93,-11.31 3.26,-26.63 2.52,-38.29s-3.94,-23.34 -10.44,-33c-6,-8.94 -14.52,-15.81 -22.89,-22.54q-8.13,-6.52 -16.25,-13.06l-12.71,4.33c0.72,5.11 -1.9,10.17 -5.39,14s-7.85,6.62 -11.69,10c-8.67,7.72 -14.56,18.29 -17.8,29.48s-3.95,23 -3.35,34.65c0.24,4.51 0.73,9.22 3.17,13s5.2,4.83 11.53,4.53c0,0 68.84,0.83 72.87,0.58c4.43,-0.3 9.53,-0.21 10.43,-3.68z" fill="#ebebeb" id="svg_105"/>
   <path d="m442.47,461.42s0,0.08 -0.07,0.22a2.2,2.2 0 0 1 -0.26,0.63a4,4 0 0 1 -2,1.72c-2.2,1 -5.72,1.08 -10.16,1.22c-8.92,0.06 -21.81,0 -37.74,-0.17l-26.06,-0.25l-7.13,-0.07a17.88,17.88 0 0 1 -7.36,-0.82a8.29,8.29 0 0 1 -3.1,-2.27a14.3,14.3 0 0 1 -2.1,-3.26a23.68,23.68 0 0 1 -2,-7.59a122.34,122.34 0 0 1 -0.4,-16.2a99.46,99.46 0 0 1 2.05,-16.77a74.75,74.75 0 0 1 5.57,-16.58a60.81,60.81 0 0 1 10,-15a58.37,58.37 0 0 1 6.82,-6.26c2.39,-1.91 4.8,-3.75 7,-5.81a24.83,24.83 0 0 0 5.33,-7a14.48,14.48 0 0 0 1.56,-8.33l0,-0.2l0.2,-0.07l12.7,-4.32l0.13,0l0.11,0.09l20.64,16.67c6.56,5.36 12.62,10.88 17.16,17.1a56.81,56.81 0 0 1 5.66,9.62a65.18,65.18 0 0 1 3.58,9.82a79.78,79.78 0 0 1 2.7,18.33a150.77,150.77 0 0 1 -1,26.31a65.44,65.44 0 0 1 -1.84,9.29s0,-0.2 0.12,-0.6l0.42,-1.87c0.32,-1.56 0.77,-3.89 1.16,-6.93a153.38,153.38 0 0 0 0.84,-26.28a79.12,79.12 0 0 0 -2.75,-18.24a65.87,65.87 0 0 0 -3.57,-9.75a56.69,56.69 0 0 0 -5.65,-9.53c-4.52,-6.17 -10.55,-11.65 -17.1,-17l-20.66,-16.6l0.24,0l-12.71,4.33l0.17,-0.28a14.93,14.93 0 0 1 -1.6,8.63a24.94,24.94 0 0 1 -5.44,7.13c-2.19,2.09 -4.61,3.94 -7,5.85a58.27,58.27 0 0 0 -6.77,6.2a60.21,60.21 0 0 0 -9.93,14.84a73.62,73.62 0 0 0 -5.54,16.47a99.21,99.21 0 0 0 -2.05,16.68a123,123 0 0 0 0.38,16.13a23.05,23.05 0 0 0 1.91,7.44c1.09,2.25 2.66,4.4 4.94,5.3a17.44,17.44 0 0 0 7.18,0.8l7.15,0.09l26.06,0.31c15.93,0.18 28.82,0.34 37.73,0.34c4.42,-0.11 7.95,-0.19 10.12,-1.11a4,4 0 0 0 2,-1.66a7.91,7.91 0 0 0 0.36,-0.74z" fill="#263238" id="svg_106"/>
   <path d="m381,359.22a3.58,3.58 0 0 1 -3.65,-2.68a5.68,5.68 0 0 1 1.3,-4.87a9.53,9.53 0 0 1 4.34,-2.76a14.76,14.76 0 0 1 5.44,-0.76a29.13,29.13 0 0 1 4.45,0.66c1.75,0.36 3.69,0.84 4.67,2.35a4.44,4.44 0 0 1 0.24,3.88a9.4,9.4 0 0 1 -2.3,3.26a32.43,32.43 0 0 1 -9,6.08a9.63,9.63 0 0 1 -4.22,1.21a3.75,3.75 0 0 1 -3.54,-2.2c-0.51,-1.39 0.89,-3.52 2.31,-4.17" fill="#e0e0e0" id="svg_107"/>
   <path d="m381,359.22a5.3,5.3 0 0 0 -1.72,1.75a4.18,4.18 0 0 0 -0.5,1.19a2,2 0 0 0 0.17,1.46a3.66,3.66 0 0 0 3.08,1.78a9.22,9.22 0 0 0 4.39,-1.24a42.42,42.42 0 0 0 4.68,-2.64a26.46,26.46 0 0 0 4.56,-3.76a9.12,9.12 0 0 0 1.76,-2.5a4.66,4.66 0 0 0 0.32,-3a3.53,3.53 0 0 0 -1.9,-2.25a11.17,11.17 0 0 0 -2.94,-0.92a22.5,22.5 0 0 0 -5.86,-0.69c-3.72,0.19 -7.15,1.64 -8.7,4a5.5,5.5 0 0 0 -0.94,3.58a3.4,3.4 0 0 0 1.31,2.43a3.93,3.93 0 0 0 1.65,0.71c0.41,0.07 0.64,0.07 0.64,0.09l-0.17,0a3.06,3.06 0 0 1 -0.49,0a3.69,3.69 0 0 1 -1.75,-0.65a3.59,3.59 0 0 1 -1.48,-2.55a5.79,5.79 0 0 1 0.92,-3.82a8.48,8.48 0 0 1 3.67,-3a14.79,14.79 0 0 1 5.31,-1.27a23,23 0 0 1 6,0.67a11.54,11.54 0 0 1 3.08,1a4.05,4.05 0 0 1 2.16,2.58a5.13,5.13 0 0 1 -0.35,3.35a9.45,9.45 0 0 1 -1.86,2.64a26.9,26.9 0 0 1 -4.67,3.81a41.52,41.52 0 0 1 -4.76,2.63a9.55,9.55 0 0 1 -4.6,1.22a4,4 0 0 1 -3.32,-2a2.26,2.26 0 0 1 -0.14,-1.64a4.26,4.26 0 0 1 0.57,-1.25a4.8,4.8 0 0 1 1.3,-1.35a2.36,2.36 0 0 1 0.43,-0.23c0.15,-0.12 0.15,-0.14 0.15,-0.13z" fill="#263238" id="svg_108"/>
   <path d="m396.46,350.05c0,0.05 -0.27,-0.06 -0.74,-0.07a5.29,5.29 0 0 0 -1.94,0.32a22.08,22.08 0 0 0 -5.74,3.28c-2.05,1.62 -4,3 -5.3,4.1s-2.07,1.84 -2.13,1.79a9.4,9.4 0 0 1 1.89,-2.07c1.27,-1.18 3.16,-2.6 5.23,-4.24a19.19,19.19 0 0 1 5.94,-3.21a4.62,4.62 0 0 1 2.07,-0.17a1.26,1.26 0 0 1 0.72,0.27z" fill="#263238" id="svg_109"/>
   <path d="m391.9,396.72c-0.1,0 0.38,-1.93 0.87,-5.06a71.62,71.62 0 0 0 0.91,-12.32c0,-2.41 -0.2,-4.71 -0.42,-6.79s-0.55,-3.94 -0.86,-5.49s-0.6,-2.8 -0.81,-3.67a6.78,6.78 0 0 1 -0.28,-1.35a7.76,7.76 0 0 1 0.48,1.3c0.27,0.85 0.62,2.09 1,3.64s0.7,3.43 1,5.52a64.31,64.31 0 0 1 0.47,6.84a62.69,62.69 0 0 1 -1.06,12.39c-0.31,1.56 -0.59,2.82 -0.83,3.67a7.3,7.3 0 0 1 -0.47,1.32z" fill="#263238" id="svg_110"/>
   <path d="m407.79,383c-0.08,0 -0.55,-1.46 -1.45,-3.82a74.68,74.68 0 0 0 -4.11,-8.93a72.92,72.92 0 0 0 -5.29,-8.3c-1.49,-2 -2.49,-3.23 -2.43,-3.29a4.24,4.24 0 0 1 0.79,0.78c0.48,0.51 1.15,1.3 1.93,2.29a58.9,58.9 0 0 1 9.45,17.32c0.41,1.2 0.71,2.19 0.88,2.87a4.26,4.26 0 0 1 0.23,1.08z" fill="#263238" id="svg_111"/>
   <path d="m382.91,378.45c-0.06,-0.06 0.45,-0.71 1.1,-1.86a16.43,16.43 0 0 0 1.8,-4.8a16.85,16.85 0 0 0 0.23,-5.13a17.2,17.2 0 0 1 -0.28,-2.14a6.08,6.08 0 0 1 0.64,2.09a14.3,14.3 0 0 1 -2.07,10.17a6.06,6.06 0 0 1 -1.42,1.67z" fill="#263238" id="svg_112"/>
   <path d="m384.15,463.9c-5.2,-0.19 -13.36,-0.2 -16.67,-3.16a10.75,10.75 0 0 1 -3.05,-11.5c1.4,-3.94 5.19,-7.13 9.71,-8.41c1.63,-0.46 3.7,-1 3.94,-2.47c0.19,-1.18 -1,-2.14 -1.64,-3.18a5.69,5.69 0 0 1 0.05,-5.79a16.43,16.43 0 0 1 4.31,-4.67a131,131 0 0 1 13.21,-9c1.2,-0.75 2.8,-1.52 4.07,-0.85s1.23,2 1,3.09s-0.55,2.35 0.06,3.35s2.2,1.52 3.55,1.94c3.12,1 6.09,2.64 7.71,5.15a6.23,6.23 0 0 1 -0.79,8c8.53,1.1 15.6,7.95 15.93,15.44a10.09,10.09 0 0 1 -3.37,8.33c-2.64,2.19 -6.48,2.82 -10.11,3.22a149.11,149.11 0 0 1 -32.58,0" fill="#ae7461" id="svg_113"/>
   <g id="svg_114" opacity="0.3">
    <path d="m372.93,441.14c4.57,0.51 8.9,2.06 13.46,2.66s9.73,0 12.79,-2.94a50.41,50.41 0 0 1 -12,0.3c-4,-0.54 -7.92,-2.16 -10.14,-5.05c1.43,0.58 1.38,2.51 0.29,3.49a8.22,8.22 0 0 1 -4.31,1.53" id="svg_115"/>
   </g>
   <g id="svg_116" opacity="0.3">
    <path d="m399,420.13a7.8,7.8 0 0 1 -4.84,4a28.31,28.31 0 0 1 -6.78,1.17a8.53,8.53 0 0 0 6.89,0.5c1.38,-0.52 2.55,-1.39 4,-1.82a9.36,9.36 0 0 1 4.31,-0.18a26.53,26.53 0 0 1 4.15,1.15a19.93,19.93 0 0 0 -5.37,-2.3a6.46,6.46 0 0 1 -1.89,-0.69a1.34,1.34 0 0 1 -0.68,-1.56" id="svg_117"/>
   </g>
   <path d="m406.13,438.32a5.68,5.68 0 0 1 -1,0.62a28.71,28.71 0 0 1 -3,1.31a31.65,31.65 0 0 1 -10.68,1.9a25.67,25.67 0 0 1 -6,-0.61a14.64,14.64 0 0 1 -4.54,-1.89a10.68,10.68 0 0 1 -2.48,-2.19a3.3,3.3 0 0 1 -0.66,-1a14.32,14.32 0 0 0 3.34,2.9a14.76,14.76 0 0 0 4.45,1.73a26.33,26.33 0 0 0 5.86,0.56a34.1,34.1 0 0 0 10.58,-1.75c2.56,-0.9 4.09,-1.66 4.13,-1.58z" fill="#263238" id="svg_118"/>
   <path d="m402.92,423.48a13.44,13.44 0 0 0 -2.52,0.37a15.65,15.65 0 0 0 -2.57,1c-0.95,0.44 -2,1 -3.16,1.42a8.75,8.75 0 0 1 -3.46,0.6a4,4 0 0 1 -2.69,-1.09a1.48,1.48 0 0 1 -0.41,-1.1a1.28,1.28 0 0 1 0.37,-0.8c0.38,-0.35 0.71,-0.24 0.68,-0.22s-0.27,0 -0.53,0.35a1.13,1.13 0 0 0 0.16,1.52a3.87,3.87 0 0 0 2.45,0.86a8.79,8.79 0 0 0 3.26,-0.61c1.12,-0.41 2.15,-0.94 3.13,-1.37a14.94,14.94 0 0 1 2.68,-0.94a4.51,4.51 0 0 1 2.61,0.01z" fill="#263238" id="svg_119"/>
   <g clip-path="url(#freepik--clip-path--inject-37)" id="svg_120">
    <g id="svg_121" opacity="0.3">
     <path d="m369.72,462.16a1.49,1.49 0 0 1 -0.86,-1.67a82.29,82.29 0 0 0 33.95,0.48a42.71,42.71 0 0 0 12.58,-4.26a21.86,21.86 0 0 0 9.24,-9.34c2.14,2.61 2.19,6.54 0.64,9.54a14.12,14.12 0 0 1 -7.62,6.33a36.2,36.2 0 0 1 -9.91,1.93a176.62,176.62 0 0 1 -33.32,-0.18" id="svg_122"/>
    </g>
   </g>
   <g id="svg_123" opacity="0.5">
    <path d="m350.76,453.69a86.22,86.22 0 0 1 3.76,-48a44.85,44.85 0 0 1 7.14,-13a23,23 0 0 1 12.24,-8c4.61,-1.06 13.65,-6.37 16.42,-10.2c3.07,10.83 -2.56,28.7 -9.27,37.75c-7.53,10.16 -20.12,16.31 -25.58,27.72c-2,4.26 -2.91,9 -3.77,13.61" fill="#fff" id="svg_124"/>
   </g>
   <path d="m368.48,385.73s-0.11,0.17 -0.37,0.47s-0.67,0.76 -1.13,1.28s-1.11,1.23 -1.76,2.06s-1.45,1.73 -2.21,2.83l-1.23,1.68c-0.42,0.59 -0.81,1.24 -1.24,1.89c-0.89,1.28 -1.69,2.75 -2.58,4.26a76.2,76.2 0 0 0 -4.68,10.4a77.22,77.22 0 0 0 -2.94,11c-0.27,1.74 -0.57,3.38 -0.69,4.94c-0.08,0.77 -0.18,1.52 -0.23,2.24s-0.07,1.42 -0.11,2.09c-0.1,1.32 -0.06,2.52 -0.07,3.58s0,2 0.06,2.71s0.05,1.26 0.07,1.71a2.52,2.52 0 0 1 0,0.6a2.33,2.33 0 0 1 -0.09,-0.59c0,-0.45 -0.1,-1 -0.17,-1.71s-0.14,-1.65 -0.15,-2.72s-0.09,-2.26 0,-3.6c0,-0.67 0.05,-1.37 0.08,-2.09s0.13,-1.49 0.2,-2.27c0.11,-1.57 0.39,-3.22 0.65,-5a67.72,67.72 0 0 1 7.65,-21.49c0.9,-1.52 1.73,-3 2.64,-4.27c0.44,-0.65 0.84,-1.29 1.28,-1.88s0.86,-1.14 1.26,-1.67c0.78,-1.09 1.6,-2 2.28,-2.79a26.68,26.68 0 0 1 1.83,-2l1.21,-1.22c0.28,-0.32 0.43,-0.46 0.44,-0.44z" fill="#fff" id="svg_125"/>
   <path d="m382.08,369.55a8.87,8.87 0 0 1 -0.89,2.19a41.2,41.2 0 0 1 -2.89,4.93a40.18,40.18 0 0 1 -3.56,4.47a9.35,9.35 0 0 1 -1.72,1.63a12.72,12.72 0 0 1 1.44,-1.87c0.92,-1.12 2.15,-2.7 3.41,-4.53s2.27,-3.54 3,-4.8a12.68,12.68 0 0 1 1.21,-2.02z" fill="#fff" id="svg_126"/>
   <path d="m394.42,365.88a4,4 0 0 1 0.39,1c0.22,0.63 0.49,1.56 0.78,2.72a45.84,45.84 0 0 1 0.66,18.56c-0.21,1.18 -0.41,2.13 -0.59,2.77a4.2,4.2 0 0 1 -0.32,1c-0.08,0 0.23,-1.46 0.54,-3.81a56.27,56.27 0 0 0 0.47,-9.25a55.05,55.05 0 0 0 -1.12,-9.18c-0.48,-2.37 -0.89,-3.79 -0.81,-3.81z" fill="#fff" id="svg_127"/>
   <path d="m411.14,381.39a28.37,28.37 0 0 0 -6.71,-13.59a6.77,6.77 0 0 1 1.68,1.54a20.69,20.69 0 0 1 3.07,4.57a20.37,20.37 0 0 1 1.75,5.21a7.17,7.17 0 0 1 0.21,2.27z" fill="#fff" id="svg_128"/>
   <path d="m384.22,364.39c0,0.07 -0.35,0.17 -0.94,0.23a3.91,3.91 0 0 1 -2.33,-0.41a2.38,2.38 0 0 1 -1,-1a1.92,1.92 0 0 1 -0.18,-1.11c0.11,-0.67 0.5,-0.9 0.53,-0.85s-0.17,0.34 -0.16,0.87a1.89,1.89 0 0 0 1,1.62a5,5 0 0 0 2.07,0.5c0.64,0.05 1.01,0.08 1.01,0.15z" fill="#fff" id="svg_129"/>
   <path d="m380.17,351.83c0.06,0 -0.09,0.41 -0.34,1a8,8 0 0 0 -0.72,2.26a3.49,3.49 0 0 0 0.48,2.21c0.33,0.49 0.68,0.69 0.64,0.76s-0.46,0 -0.93,-0.54a3.23,3.23 0 0 1 -0.7,-2.49a5.89,5.89 0 0 1 0.9,-2.38c0.35,-0.55 0.61,-0.85 0.67,-0.82z" fill="#fff" id="svg_130"/>
   <path d="m376.22,333.06c0.09,0 -0.21,1 -0.44,2.54a19.34,19.34 0 0 0 2.09,12c0.75,1.4 1.35,2.19 1.28,2.25a8,8 0 0 1 -1.6,-2.06a17.29,17.29 0 0 1 -2.13,-12.22a7.85,7.85 0 0 1 0.8,-2.51z" fill="#fff" id="svg_131"/>
   <path d="m384,329.09c0.09,0.13 -0.81,0.8 -1.49,2s-0.88,2.25 -1,2.23a3.17,3.17 0 0 1 0.58,-2.5c0.74,-1.32 1.91,-1.82 1.91,-1.73z" fill="#fff" id="svg_132"/>
   <path d="m393.45,333.59c0,0.15 -0.67,0.36 -1.33,0.9s-1,1.15 -1.17,1.1s0.05,-0.88 0.84,-1.51s1.66,-0.63 1.66,-0.49z" fill="#fff" id="svg_133"/>
   <path d="m400.28,338.6c0,0.14 -0.51,0.41 -1.17,0.74s-1.22,0.58 -1.31,0.46s0.37,-0.59 1.08,-0.93s1.36,-0.41 1.4,-0.27z" fill="#fff" id="svg_134"/>
   <g id="svg_135" opacity="0.5">
    <path d="m425.21,387.47c5.1,10.52 7.78,20.43 4.68,31.71s-9,24.78 -18.8,31.1c-4.39,-1.72 6.24,-16.55 10.16,-36.53a53.59,53.59 0 0 0 0.13,-19.88a28.69,28.69 0 0 0 -1.35,-5.35c-1.54,-3.56 -4.75,-11.43 -4.75,-11.43a25.71,25.71 0 0 1 9.93,10.38z" fill="#fff" id="svg_136"/>
   </g>
  </g>
  <text fill="#000000" font-family="Courier" font-size="11" id="svg_138" stroke-width="0" text-anchor="middle" transform="rotate(-2.03723 387.911 235.715) matrix(7.23516 -0.33053 0.21732 4.75704 1770.04 -1036.69)" x="-198.65" xml:space="preserve" y="256.61">404</text>
  <text fill="#000000" font-family="Courier" font-size="11" id="svg_139" stroke-width="0" text-anchor="middle" transform="rotate(-3.58839 389.5 272.865) matrix(2.68941 0 0 2.64259 350.065 -589.344)" x="14.66" xml:space="preserve" y="329.09">Error</text>
 </g>
</svg>